<svg width="829" height="745" viewBox="0 0 829 745" fill="none" xmlns="http://www.w3.org/2000/svg">
<g id="Moon" clip-path="url(#clip0)">
<g id="Moon_2">
<path id="Vector" d="M578.701 626.146C719.211 522.884 749.407 325.269 646.146 184.759C542.884 44.2491 345.269 14.0532 204.759 117.315C64.2492 220.576 34.0533 418.191 137.315 558.701C240.576 699.211 438.191 729.407 578.701 626.146Z" fill="#61AFDA"/>
<path id="Vector_2" opacity="0.05" d="M215.844 319.704C233.298 306.877 237.049 282.329 224.222 264.875C211.395 247.421 186.847 243.67 169.393 256.497C151.939 269.324 148.188 293.872 161.015 311.326C173.842 328.78 198.39 332.531 215.844 319.704Z" fill="black"/>
<path id="Vector_3" opacity="0.05" d="M561.226 587.102C578.681 574.274 582.431 549.727 569.604 532.273C556.777 514.818 532.229 511.067 514.775 523.895C497.321 536.722 493.57 561.269 506.397 578.724C519.224 596.178 543.772 599.929 561.226 587.102Z" fill="black"/>
<path id="Vector_4" opacity="0.05" d="M449.858 369.331C485.545 343.105 493.215 292.914 466.988 257.227C440.761 221.54 390.57 213.871 354.883 240.097C319.196 266.324 311.527 316.515 337.754 352.202C363.98 387.889 414.171 395.558 449.858 369.331Z" fill="black"/>
</g>
<g id="Car">
<path id="Vector_5" d="M542.156 439.615L505.721 483.865L527.847 502.083L564.281 457.832L542.156 439.615Z" fill="#4F617D"/>
<path id="Vector_6" d="M573.925 502.688L573.944 502.6C562.624 516.345 549.288 524.19 536.194 513.418L525.659 504.744L566.702 454.969L577.227 463.64C590.319 474.422 585.245 488.944 573.925 502.688Z" fill="#FF656A"/>
<path id="Vector_7" d="M561.986 513.867C566.5 510.738 570.526 506.958 573.933 502.649C577.013 499.005 579.64 495.002 581.757 490.727L577.26 487.019L557.946 510.513L561.986 513.867Z" fill="#4A5C81"/>
<path id="Vector_8" d="M533.537 495.166L557.45 466.124L558.261 466.791C558.698 467.152 559.061 467.595 559.328 468.096C559.594 468.596 559.76 469.145 559.814 469.709C559.869 470.274 559.812 470.844 559.647 471.387C559.481 471.929 559.21 472.434 558.85 472.872L540.416 495.26C539.688 496.144 538.638 496.703 537.498 496.813C536.357 496.924 535.22 496.577 534.335 495.849L533.525 495.181L533.537 495.166Z" fill="#4A5C81"/>
<path id="Vector_9" d="M482.211 461.695L483.101 460.614L530.115 499.324L525.564 504.852L483.004 469.809C482.419 469.329 481.934 468.738 481.577 468.07C481.22 467.402 480.998 466.67 480.925 465.916C480.851 465.163 480.927 464.402 481.147 463.677C481.368 462.953 481.73 462.279 482.211 461.695Z" fill="#FF6469"/>
<path id="Vector_10" d="M515.115 421.728L516.005 420.647C516.976 419.468 518.376 418.722 519.896 418.575C521.417 418.428 522.934 418.891 524.113 419.862L566.68 454.911L562.129 460.438L515.115 421.728Z" fill="#FF6469"/>
<path id="Vector_11" d="M537.712 430.977L496.728 480.765L483.674 470.042C469.295 458.199 472.76 442.353 484.07 428.606C495.39 414.862 510.277 408.421 524.698 420.263L537.712 430.977Z" fill="#FF656A"/>
<path id="Vector_12" d="M475.021 459.06L483.284 449.061L475.636 442.771C473.571 448.343 473.187 453.895 475.021 459.06Z" fill="#FFF6D5"/>
<path id="Vector_13" d="M511.854 414.318L503.591 424.317L495.943 418.027C501.065 414.956 506.435 413.502 511.854 414.318Z" fill="#FFF6D5"/>
<path id="Vector_14" d="M495.017 485.898L498.195 482.038L503.723 486.589L496.883 494.896L495.818 494.019C495.231 493.539 494.745 492.948 494.386 492.28C494.028 491.611 493.806 490.879 493.731 490.125C493.657 489.37 493.732 488.608 493.953 487.883C494.174 487.158 494.535 486.483 495.017 485.898V485.898Z" fill="#FF6469"/>
<path id="Vector_15" d="M550.249 429.908L543.416 438.207L537.888 433.655L541.066 429.796C542.037 428.616 543.437 427.871 544.958 427.724C546.478 427.576 547.995 428.039 549.174 429.01L550.255 429.9L550.249 429.908Z" fill="#FF6469"/>
<path id="Vector_16" d="M539.747 439.62L505.465 481.265L488.376 457.895C487.047 456.076 486.361 453.866 486.426 451.615C486.49 449.363 487.302 447.196 488.734 445.457L501.473 429.99C502.911 428.244 504.89 427.027 507.097 426.534C509.305 426.041 511.613 426.299 513.657 427.267L539.747 439.62Z" fill="#53678B"/>
<path id="Vector_17" d="M506.881 479.849C497.711 472.304 497.162 457.833 505.656 447.515C514.15 437.198 528.454 434.987 537.619 442.51" fill="#658BC8"/>
<path id="Vector_18" d="M541.219 440.966L507.063 482.454L502.914 479.035L506.737 477.211L534.797 443.136L537.07 437.547L541.219 440.966Z" fill="#FF656A"/>
<path id="Vector_19" opacity="0.05" d="M541.219 440.966L507.063 482.454L502.914 479.035L506.737 477.211L534.797 443.136L537.07 437.547L541.219 440.966Z" fill="black"/>
<path id="Vector_20" d="M524.07 461.731L519.519 467.259L525.046 471.81L529.597 466.283L524.07 461.731Z" fill="#53678B"/>
<path id="Vector_21" d="M528.721 470.182C531.235 467.129 532.654 464.145 531.89 463.517C531.127 462.888 528.471 464.854 525.957 467.906C523.444 470.959 522.025 473.943 522.788 474.571C523.551 475.2 526.208 473.235 528.721 470.182Z" fill="#53678B"/>
<path id="Vector_22" opacity="0.05" d="M568.212 467.855C569.621 468.762 570.829 469.947 571.763 471.338C572.696 472.729 573.334 474.297 573.639 475.944C573.943 477.591 573.907 479.283 573.533 480.916C573.159 482.549 572.454 484.087 571.463 485.438" fill="black"/>
<path id="Vector_23" opacity="0.05" d="M492.592 451.973C492.592 451.973 493.886 439.121 508.531 432.617Z" fill="black"/>
<path id="Vector_24" opacity="0.05" d="M497.811 456.274C497.811 456.274 499.105 443.421 513.75 436.918Z" fill="black"/>
<path id="Vector_25" d="M513.094 466.603C514.979 464.313 514.651 460.929 512.362 459.044C510.072 457.158 506.688 457.486 504.803 459.776C502.918 462.065 503.246 465.45 505.535 467.335C507.825 469.22 511.209 468.892 513.094 466.603Z" fill="#4A77BE"/>
<path id="Vector_26" d="M522.854 449.119C524.111 447.593 523.892 445.337 522.366 444.08C520.839 442.823 518.583 443.042 517.326 444.568C516.07 446.094 516.288 448.35 517.815 449.607C519.341 450.864 521.597 450.645 522.854 449.119Z" fill="#4A77BE"/>
<path id="Vector_27" d="M528.67 462.296L528.679 461.246C528.684 460.673 528.916 460.125 529.325 459.724C529.733 459.322 530.285 459.099 530.858 459.104L542.61 459.203C543.196 459.208 543.756 459.445 544.167 459.863C544.578 460.281 544.806 460.846 544.801 461.432L544.775 464.602L530.772 464.484C530.205 464.469 529.666 464.231 529.273 463.821C528.879 463.412 528.663 462.864 528.67 462.296V462.296Z" fill="#CDEFFF"/>
<path id="Vector_28" opacity="0.05" d="M534.896 465.525L534.949 460.155L541.359 460.218C542.504 460.23 543.599 460.696 544.401 461.514C545.203 462.332 545.647 463.435 545.636 464.581L545.625 465.631L534.896 465.525Z" fill="black"/>
<path id="Vector_29" d="M520.776 485.486L526.745 478.237L535.329 485.306L529.361 492.555C528.61 493.466 527.529 494.041 526.354 494.155C525.18 494.269 524.008 493.911 523.097 493.161L521.422 491.782C520.963 491.413 520.582 490.957 520.301 490.439C520.02 489.922 519.845 489.354 519.785 488.769C519.724 488.183 519.781 487.592 519.951 487.028C520.122 486.465 520.402 485.941 520.776 485.486V485.486Z" fill="#CDEFFF"/>
<path id="Vector_30" d="M529.787 491.646L527.239 495.02C524.671 497.765 519.89 497.647 516.366 494.75L512.277 491.385L515.796 487.104L529.787 491.646Z" fill="#CDEFFF"/>
<path id="Vector_31" d="M505.144 482.693L505.831 481.859C506.207 481.403 506.749 481.114 507.337 481.057C507.926 481 508.513 481.179 508.97 481.555L515.802 487.181L512.28 491.457L505.448 485.832C504.992 485.456 504.703 484.914 504.646 484.325C504.589 483.737 504.768 483.15 505.144 482.693Z" fill="#CDEFFF"/>
<path id="Vector_32" opacity="0.05" d="M529.726 484.201C531.142 485.369 532.908 486.032 534.743 486.086L535.103 485.642L526.755 478.753C527.002 480.885 528.067 482.838 529.726 484.201V484.201Z" fill="black"/>
<path id="Vector_33" d="M548.47 469.094L542.508 476.335L533.954 469.293L539.923 462.044C540.294 461.593 540.751 461.219 541.267 460.944C541.782 460.67 542.347 460.499 542.929 460.443C543.511 460.387 544.098 460.445 544.657 460.616C545.216 460.786 545.736 461.065 546.187 461.437L547.862 462.816C548.313 463.188 548.687 463.644 548.961 464.16C549.236 464.676 549.406 465.241 549.463 465.823C549.519 466.404 549.46 466.991 549.29 467.55C549.119 468.109 548.84 468.629 548.469 469.08L548.47 469.094Z" fill="#CDEFFF"/>
<path id="Vector_34" opacity="0.05" d="M540.478 471.153C541.9 472.32 542.893 473.927 543.299 475.721L542.938 476.165L534.59 469.276C536.721 469.119 538.831 469.791 540.478 471.153V471.153Z" fill="black"/>
<path id="Vector_35" d="M541.593 482.717C544.51 479.174 544.003 473.937 540.46 471.019C536.917 468.102 531.68 468.609 528.763 472.152C525.845 475.695 526.353 480.932 529.896 483.85C533.439 486.767 538.676 486.26 541.593 482.717Z" fill="#CDEFFF"/>
<path id="Vector_36" d="M541.163 482.752C544.08 479.209 543.573 473.971 540.03 471.054C536.487 468.137 531.25 468.644 528.332 472.187C525.415 475.73 525.922 480.967 529.465 483.885C533.008 486.802 538.246 486.295 541.163 482.752Z" fill="#CDEFFF"/>
<path id="Vector_37" d="M528.294 472.097C527.367 473.223 526.752 474.573 526.512 476.012C526.272 477.45 526.416 478.927 526.928 480.292C528.365 480.53 529.839 480.385 531.203 479.873C532.566 479.362 533.771 478.501 534.697 477.376C535.623 476.252 536.237 474.904 536.478 473.468C536.719 472.032 536.578 470.557 536.069 469.192C534.633 468.952 533.158 469.093 531.793 469.603C530.428 470.113 529.221 470.973 528.294 472.097V472.097Z" fill="#658BC8"/>
<path id="Vector_38" opacity="0.05" d="M541.793 500.225C542.953 501.437 544.349 502.399 545.895 503.05C547.441 503.702 549.104 504.029 550.781 504.012C552.459 503.996 554.115 503.635 555.648 502.953C557.18 502.272 558.557 501.283 559.693 500.048" fill="black"/>
</g>
<g id="Spiral">
<path id="Vector_39" d="M530.014 351.708C502.953 380.784 472.758 410.439 440.516 439.474C368.858 504.022 295.456 558.04 233.849 591.575C171.784 625.339 128.845 634.282 113.001 616.695C104.976 607.792 104.34 592.828 111.101 572.236L113.429 573.037C106.961 592.727 107.426 606.862 114.817 615.066C122.209 623.27 136.544 625.246 157.168 620.671C177.434 616.172 202.819 605.659 232.669 589.453C294.123 556.008 367.346 502.109 438.867 437.68C510.388 373.25 571.62 306.034 611.27 248.416C630.487 220.428 643.609 196.289 650.198 176.602C656.908 156.564 656.512 142.193 649.032 133.893C640.521 124.441 622.552 123.36 597.084 130.762L596.39 128.382C623.231 120.576 641.554 121.878 650.876 132.235C666.727 149.829 653.382 191.587 613.308 249.807C591.478 281.497 563.049 316.198 530.014 351.708Z" fill="url(#paint0_linear)"/>
<path id="Vector_40" opacity="0.5" d="M594.927 127.84C620.333 120.461 638.966 121.136 648.141 131.328C680.035 166.736 585.894 303.526 437.868 436.859C289.842 570.192 143.991 649.581 112.097 614.173C104.191 605.449 104.065 590.51 110.453 570.936" stroke="#BDBDBD" stroke-width="3" stroke-miterlimit="10"/>
</g>
</g>
<defs>
<linearGradient id="paint0_linear" x1="345519" y1="-246639" x2="327609" y2="-263307" gradientUnits="userSpaceOnUse">
<stop stop-color="#808080" stop-opacity="0.25"/>
<stop offset="0.54" stop-color="#808080" stop-opacity="0.12"/>
<stop offset="1" stop-color="#808080" stop-opacity="0.1"/>
</linearGradient>
<clipPath id="clip0">
<rect width="829" height="744.16" fill="white"/>
</clipPath>
</defs>
</svg>
