<svg xmlns="http://www.w3.org/2000/svg" xmlns:xlink="http://www.w3.org/1999/xlink" viewBox="0 0 1000 1000"><defs><style>.cls-1{fill:url(#Gradient_bez_nazwy_6);}.cls-2{fill:#214d67;}.cls-3{fill:#fff;}.cls-4{fill:none;stroke:#fff;stroke-linecap:round;stroke-miterlimit:10;stroke-width:1.07px;opacity:0.8;}</style><radialGradient id="Gradient_bez_nazwy_6" cx="486.49" cy="499.38" fx="-0.1247159300521048" fy="307.6308054263387" r="523.03" gradientUnits="userSpaceOnUse"><stop offset="0" stop-color="#fff"/><stop offset="0" stop-color="#fcfdfe"/><stop offset="0.07" stop-color="#cde0ea"/><stop offset="0.13" stop-color="#a4c6d9"/><stop offset="0.2" stop-color="#83b2cb"/><stop offset="0.27" stop-color="#6aa1c1"/><stop offset="0.34" stop-color="#5796b9"/><stop offset="0.42" stop-color="#4d8fb4"/><stop offset="0.5" stop-color="#498db3"/><stop offset="0.57" stop-color="#4985ad"/><stop offset="0.67" stop-color="#49709b"/><stop offset="0.8" stop-color="#494e7e"/><stop offset="0.92" stop-color="#49275e"/></radialGradient></defs><title>tinx</title><g id="Warstwa_4" data-name="Warstwa 4"><g id="gradneint_cieniowanie_koła" data-name="gradneint cieniowanie koła"><path class="cls-1" d="M812.35,499.38c0,180-145.89,325.86-325.86,325.86S160.62,679.35,160.62,499.38a324.34,324.34,0,0,1,43.6-162.94C260.56,239,365.87,173.51,486.49,173.51,666.46,173.51,812.35,319.41,812.35,499.38Z"/></g><g id="linia_i_n" data-name="linia i n"><path class="N" d="M649.42,597.14V499.38a97.76,97.76,0,0,0-97.76-97.76h0a97.76,97.76,0,0,0-97.76,97.76v97.76h65.17V499.38a32.59,32.59,0,0,1,32.59-32.59h0a32.59,32.59,0,0,1,32.59,32.59v97.76Z"/><path class="cls-2" d="M486.49,499.38A187.36,187.36,0,0,0,484.63,479a164.52,164.52,0,0,0-11.07-39.09,157.23,157.23,0,0,0-9.19-18.07,141.39,141.39,0,0,0-25.24-31.36,119.62,119.62,0,0,0-33.33-21.86,94.08,94.08,0,0,0-38.46-8l-2.46,0-1.23,0-1.22.11-4.9.42-4.84.76a22.28,22.28,0,0,0-2.41.47l-2.39.55a95,95,0,0,0-18.48,6.51,122.17,122.17,0,0,0-32.07,22.74A151.28,151.28,0,0,0,284,406.94a183,183,0,0,0-11.56,16.2,191.81,191.81,0,0,0-17.66,35.59A167,167,0,0,0,249,477.61c-.35,1.59-.74,3.18-1.06,4.79l-.82,4.83-.42,2.41c-.06.4-.14.8-.2,1.21l-.12,1.22-.51,4.87a148,148,0,0,0,1.7,39.13,181.4,181.4,0,0,0,11.11,37.79A221.67,221.67,0,0,0,301.55,640a228.42,228.42,0,0,0,62.71,47.57A195.59,195.59,0,0,0,439.18,709a193.44,193.44,0,0,0,77-10.25,228.2,228.2,0,0,0,68.43-37.86,248.09,248.09,0,0,0,52.71-58,226.86,226.86,0,0,0,31.17-71.54,217.82,217.82,0,0,0,5.72-38.72,231.44,231.44,0,0,0-1-39.21,236.41,236.41,0,0,0-7.51-38.59A256,256,0,0,0,633,343.22l-2.74-4.12c-.92-1.37-1.91-2.69-2.86-4s-1.9-2.7-2.89-4l-3-3.93c-1-1.33-2-2.61-3-4a30.85,30.85,0,0,1-2.55-4.32,27.51,27.51,0,0,1-3-10.69l4.69-4.28c8.34,1.77,13.58,6.73,17.8,12.35l3.26,4.15c1.08,1.4,2.1,2.83,3.15,4.25s2.11,2.82,3.11,4.27l3,4.36a271.43,271.43,0,0,1,21,36.71c3.08,6.36,5.77,12.9,8.35,19.48,1.22,3.32,2.45,6.64,3.57,10s2.23,6.72,3.15,10.14a255.8,255.8,0,0,1,8.51,41.6,241.8,241.8,0,0,1,1.42,42.54,236.87,236.87,0,0,1-6,42.21l-1.26,5.19c-.45,1.72-1,3.43-1.43,5.15-.91,3.44-2,6.82-3.14,10.21-.52,1.71-1.19,3.36-1.79,5l-1.85,5c-1.26,3.33-2.72,6.57-4.07,9.87A254.91,254.91,0,0,1,654,613.77a265.32,265.32,0,0,1-57.36,62.28,245.09,245.09,0,0,1-74.51,40.39,211.39,211.39,0,0,1-84.35,10.12,206.15,206.15,0,0,1-41.89-8.1,221.67,221.67,0,0,1-39.27-16.23,246.77,246.77,0,0,1-91.8-85.54A220.84,220.84,0,0,1,245.74,579a194.22,194.22,0,0,1-11.1-40.85,160.6,160.6,0,0,1-1-42.47l.66-5.29.17-1.32c.07-.44.16-.88.24-1.32l.5-2.62,1-5.24c.38-1.74.84-3.45,1.26-5.18a171.22,171.22,0,0,1,6.65-20.09,202.54,202.54,0,0,1,19.59-37.17,190.54,190.54,0,0,1,12.63-16.81,159.62,159.62,0,0,1,14.53-15.24A128.88,128.88,0,0,1,326,361.93a103.53,103.53,0,0,1,20.26-6.49l2.62-.52a25.76,25.76,0,0,1,2.63-.44l5.28-.67,5.32-.31,1.33-.07h1.33l2.66,0a100,100,0,0,1,40.86,9.74,124.8,124.8,0,0,1,34,24,143.74,143.74,0,0,1,13.61,15.68,141.62,141.62,0,0,1,11.2,17.41A158.81,158.81,0,0,1,475.8,439,170.13,170.13,0,0,1,482,458.68a173.94,173.94,0,0,1,3.52,20.23A184.49,184.49,0,0,1,486.49,499.38Z"/><path class="cls-3" d="M486.49,499.38a157.66,157.66,0,0,0-21.41-80.54c-.92-1.48-1.75-3-2.73-4.47L459.47,410l-3.06-4.24c-1-1.42-2.14-2.76-3.2-4.14A142.36,142.36,0,0,0,439,386.36a123.87,123.87,0,0,0-34.53-22.61,100.83,100.83,0,0,0-39.83-8.53,84.8,84.8,0,0,0-20.15,2.28,94.71,94.71,0,0,0-19.17,6.61,119.91,119.91,0,0,0-17.57,10.29A132.77,132.77,0,0,0,292,387.49c-2.5,2.33-4.83,4.85-7.19,7.34l-3.4,3.86c-1.15,1.27-2.18,2.65-3.28,4a180.15,180.15,0,0,0-12,16.73q-5.53,8.72-10.18,17.93a199.41,199.41,0,0,0-8.23,18.87,176.92,176.92,0,0,0-6.1,19.52l-1.11,5-.86,5c-.26,1.67-.63,3.32-.81,5l-.52,5.05a154.64,154.64,0,0,0,1.59,40.52,187.6,187.6,0,0,0,11.39,39.16A229.42,229.42,0,0,0,295.59,644a236.73,236.73,0,0,0,64.85,49.39A202.59,202.59,0,0,0,438,715.71a200,200,0,0,0,79.77-10.48,235.65,235.65,0,0,0,70.85-39.17,256.56,256.56,0,0,0,54.68-60A234.67,234.67,0,0,0,675.6,532a224.64,224.64,0,0,0,5.95-40.08,239.39,239.39,0,0,0-1-40.59,243.31,243.31,0,0,0-7.76-40c-.86-3.3-1.94-6.52-2.94-9.78-.48-1.63-1.09-3.22-1.64-4.83s-1.09-3.23-1.68-4.82c-2.4-6.37-4.9-12.72-7.79-18.9a261.74,261.74,0,0,0-19.82-35.78L636,333c-.95-1.43-2-2.79-3-4.19s-2-2.8-3-4.16L627,320.56c-1-1.37-2.1-2.69-3.1-4.09a32.54,32.54,0,0,1-2.64-4.48,39.57,39.57,0,0,1-2-5.06,23.3,23.3,0,0,1-1.1-6L623,296.5c8.63,1.83,14,7,18.42,12.79l3.38,4.3c1.12,1.44,2.17,2.93,3.26,4.39s2.19,2.93,3.22,4.43l3.1,4.51a280.13,280.13,0,0,1,21.74,38c3.19,6.58,6,13.36,8.65,20.17,1.26,3.44,2.54,6.87,3.69,10.35s2.3,7,3.26,10.49A264.05,264.05,0,0,1,700.46,449a248.22,248.22,0,0,1,1.45,44,245.27,245.27,0,0,1-6.29,43.7l-1.3,5.38-1.49,5.33c-1,3.56-2.14,7.06-3.26,10.57s-2.52,6.93-3.77,10.4-2.82,6.81-4.23,10.21a262.37,262.37,0,0,1-21.08,38.7,274.9,274.9,0,0,1-59.4,64.5,254.22,254.22,0,0,1-77.25,41.67,218.82,218.82,0,0,1-87.36,10.33,213.4,213.4,0,0,1-43.36-8.48,228.6,228.6,0,0,1-40.63-16.88,255.35,255.35,0,0,1-94.88-88.75,228.83,228.83,0,0,1-19.66-39,201.25,201.25,0,0,1-11.38-42.34,167.74,167.74,0,0,1-.84-44l.69-5.48c.23-1.83.66-3.63,1-5.44l1-5.43,1.32-5.35a179.12,179.12,0,0,1,7-20.78,208.53,208.53,0,0,1,9.2-19.76,217.08,217.08,0,0,1,11.2-18.65,192.42,192.42,0,0,1,13.13-17.37c1.19-1.37,2.32-2.79,3.58-4.11l3.7-4c2.56-2.58,5.1-5.18,7.82-7.61a143.4,143.4,0,0,1,17.17-13.57,125.94,125.94,0,0,1,19.27-10.57,102.81,102.81,0,0,1,21-6.59,92.94,92.94,0,0,1,21.94-1.84A106.82,106.82,0,0,1,407,358.13a128.84,128.84,0,0,1,35.3,24.78,146,146,0,0,1,14.12,16.22c1.05,1.45,2.16,2.86,3.15,4.35l3,4.47,2.79,4.58c.95,1.52,1.74,3.12,2.62,4.68a152.19,152.19,0,0,1,8.85,19.47,166.46,166.46,0,0,1,6.06,20.45,174.32,174.32,0,0,1,3.19,21A180.93,180.93,0,0,1,486.49,499.38Z"/></g><g id="napis"><path class="N" d="M630.75,564.55l18.67-65.17a97.76,97.76,0,0,0-97.76-97.76h0a97.76,97.76,0,0,0-97.76,97.76v97.76h65.17V499.38a32.59,32.59,0,0,1,32.59-32.59h0a32.59,32.59,0,0,1,32.59,32.59v97.76Z"/><polygon class="X" points="910.11 597.14 844.94 597.14 812.57 548.6 784.54 506.54 714.59 401.62 779.77 401.62 821.85 464.73 845.38 500.05 910.11 597.14"/><path class="X" d="M670.54,662.31h65.18l264.28-391c-40.45,47.44-74.55,84.58-97.61,109.14-56,59.63-89.25,90.1-136.79,149C742.66,557.87,681.21,647.12,670.54,662.31Z"/><g id="I"><path d="M356.14,336.45a91.67,91.67,0,0,0-91.67,91.66v0a3.36,3.36,0,0,0,1.1,2.48l1.64,1.5L354.8,512.2a2,2,0,0,0,2.68,0l87.59-80.08,1.65-1.52a3.35,3.35,0,0,0,1.09-2.47v0A91.67,91.67,0,0,0,356.14,336.45Zm0,77.77a30.53,30.53,0,0,1,26.93,16.12,2,2,0,0,1,.09,1.65L358,497.67a2,2,0,0,1-3.71,0L329.12,432a2,2,0,0,1,.09-1.65A30.53,30.53,0,0,1,356.14,414.22Zm-79.62,18.26a8.07,8.07,0,0,1,.61-12.47,30.55,30.55,0,0,1,44.73,10.15v0l2.89,7.51v0l1.1,2.89,18.84,49.1a2,2,0,0,1-3.19,2.17Zm94.26,59.4a2,2,0,0,1-3.2-2.17l18.84-49.1,1.11-2.89,2.84-7.41a2.39,2.39,0,0,1,.13-.28,30.56,30.56,0,0,1,44.66-10,8.08,8.08,0,0,1,.61,12.47Z"/><path d="M323.55,532v51.08a14.09,14.09,0,0,0,14.09,14.09h37a14.09,14.09,0,0,0,14.09-14.09V532Z"/><path d="M399.51,538.65v.14A5.52,5.52,0,0,1,394,544.3h-75.7a5.51,5.51,0,0,1-5.51-5.51v-.14a19,19,0,0,1,19-19h48.66A19,19,0,0,1,399.51,538.65Z"/></g><path id="T" d="M603.89,803.45a331.78,331.78,0,0,1-78.48,22.34c-10.27,1.59-46,6.63-94.4,1-36-4.19-116.65-13.56-193.26-73.92-20.05-15.8-73.42-59-103.86-137.09C95.41,517,119.31,429.21,128,401.62H62.87V336.44H258.39a65.18,65.18,0,0,1-65.18,65.18h0c-7.62,29.66-25.27,114.44,13,209.63,10.61,26.35,38.15,84.9,97.44,132.36C426.74,842.12,581.4,808.69,603.89,803.45Z"/></g><g id="xd_to_co_z_puszki_wychodzi" data-name="xd to co z puszki wychodzi"><path class="cls-2" d="M578.86,268s9.56,10.06,10,10.06,14.94,5.29,14.94,5.29L608,284l-2.76-14.36-7.81-9.2-6-5-6.05,6Z"/><path class="cls-3" d="M604.87,281.47c-14.28-2.31-26-13.5-26-13.5,10.5,19.72,32.22,19.72,32.22,19.72s0-21.73-19.72-32.22C591.36,255.47,602.55,267.2,604.87,281.47Z"/></g><g id="puszka"><path class="cls-3" d="M593.57,248a.91.91,0,0,1,.2.22c.44.7-.27,1.36-.34,2.62s.45,1.81,0,2.54a2.39,2.39,0,0,1-.22.26l-7.85,7.85-7.85,7.85a1.57,1.57,0,0,1-.25.21c-.73.51-1.38,0-2.54.05s-1.93.79-2.63.34a1,1,0,0,1-.22-.19c-.58-.66-13.5-13.51-32.45-32.38a6.16,6.16,0,0,1-1-1.74c-.17-.49-.16-.63-.51-2.15a9.16,9.16,0,0,0-.43-1.62,5.38,5.38,0,0,0-1-1.5,1.59,1.59,0,0,1-2.25-2.25l17.67-17.68a1.6,1.6,0,0,1,2.26,2.26,5.31,5.31,0,0,0,1.49,1,9.41,9.41,0,0,0,1.62.44,19.71,19.71,0,0,1,2.15.51,6.32,6.32,0,0,1,1.75,1C580.08,234.54,592.61,247.18,593.57,248Z"/><path class="cls-4" d="M528.17,213.49a40.33,40.33,0,0,1,3.46,3.78,41,41,0,0,1,2.41,3.37"/><path class="cls-4" d="M523.15,198.14a96.9,96.9,0,0,0,7.46,7.4c1.94,1.72,3.84,3.27,5.68,4.66"/><path class="cls-4" d="M589.22,233.81A30.69,30.69,0,0,1,600,244.59a30.12,30.12,0,0,1,1.54,3"/><path class="cls-4" d="M571.32,279a25.15,25.15,0,0,0,16.56,9.32"/></g></g></svg>